<svg width="46" height="46" viewBox="0 0 46 46" fill="none" xmlns="http://www.w3.org/2000/svg">
<path d="M42.4923 21.7062L32.7173 17.1494C33.0479 16.4306 32.746 15.5681 32.0273 15.2375C31.3085 14.9069 30.446 15.2087 30.1154 15.9275L28.8935 18.5294L24.9835 16.7037L25.8891 14.7487C26.076 14.835 26.2916 14.8781 26.4929 14.8781C26.6654 14.8781 26.8235 14.8494 26.9816 14.7919C27.341 14.6625 27.6285 14.3894 27.7866 14.0444L29.6123 10.1344C29.9429 9.41561 29.641 8.55311 28.9223 8.22248L14.6048 1.56686C13.886 1.23623 13.0235 1.53811 12.6929 2.25686L10.8673 6.16686C10.7091 6.51186 10.6948 6.91436 10.8241 7.25936C10.9535 7.61873 11.2266 7.90623 11.5716 8.06436L8.53852 14.5762C8.19352 14.4181 7.79102 14.4037 7.44602 14.5331C7.08664 14.6625 6.79914 14.9356 6.64102 15.2806L4.81539 19.1906C4.48477 19.9094 4.78664 20.7719 5.50539 21.1025L19.8373 27.7869C20.0385 27.8731 20.2398 27.9162 20.441 27.9162C20.9873 27.9162 21.5048 27.6144 21.7491 27.0825L23.5748 23.1725C23.7329 22.8275 23.7473 22.425 23.6179 22.08C23.4885 21.7206 23.2154 21.4331 22.8704 21.275L23.776 19.32L27.686 21.1456L26.4641 23.7475C26.1335 24.4662 26.4354 25.3287 27.1541 25.6594C27.3554 25.7456 27.5566 25.7887 27.7579 25.7887C28.3041 25.7887 28.8216 25.4869 29.066 24.955L38.841 29.5119C39.3298 29.7419 39.8473 29.8569 40.3648 29.8569C40.7816 29.8569 41.1985 29.785 41.601 29.6412C42.5066 29.3106 43.2254 28.6494 43.6279 27.7869L44.2316 26.4787C45.0654 24.6819 44.2891 22.54 42.4923 21.7062ZM19.7366 24.5812L8.00664 19.1187L8.61039 17.8106L20.3404 23.2731L19.7366 24.5812ZM20.2541 20.0675L11.1404 15.8125L14.1735 9.30061L23.2873 13.5556L20.2541 20.0675ZM14.0873 6.08061L14.691 4.77248L26.421 10.235L25.8173 11.5431L14.0873 6.08061ZM41.6154 25.2569L41.0116 26.565C40.8966 26.795 40.7098 26.8956 40.6091 26.9387C40.5085 26.9819 40.2929 27.025 40.0629 26.91L30.2879 22.3531L31.5098 19.7512L41.2848 24.3081C41.6441 24.4806 41.8023 24.8975 41.6298 25.2569H41.6154Z" fill="#6A5E55"/>
<path d="M25.875 35.9375H24.4375V33.7812C24.4375 31.7975 22.8275 30.1875 20.8438 30.1875H7.90625C5.9225 30.1875 4.3125 31.7975 4.3125 33.7812V35.9375H2.875C2.08437 35.9375 1.4375 36.5844 1.4375 37.375V43.125C1.4375 43.9156 2.08437 44.5625 2.875 44.5625H25.875C26.6656 44.5625 27.3125 43.9156 27.3125 43.125V37.375C27.3125 36.5844 26.6656 35.9375 25.875 35.9375ZM7.1875 33.7812C7.1875 33.3788 7.50375 33.0625 7.90625 33.0625H20.8438C21.2463 33.0625 21.5625 33.3788 21.5625 33.7812V35.9375H7.1875V33.7812ZM24.4375 41.6875H4.3125V38.8125H24.4375V41.6875Z" fill="#6A5E55"/>
</svg>
