<svg width="77" height="71" viewBox="0 0 77 71" fill="none" xmlns="http://www.w3.org/2000/svg">
<g opacity="0.2">
<path d="M45.2539 0C48.7505 0 51.5808 2.96672 51.6006 6.64258V70.4658H33.5664V60.3076C33.5663 58.4067 32.0964 56.886 30.3164 56.8857H21.2861C19.5061 56.8857 18.0608 58.4065 18.0605 60.2803V70.4658H0V54.1699H0.000976562V46.0215H0V40.5898H0.000976562V32.4424H0V27.0098H0.000976562V18.8623H0V7.99805L0.000976562 6.68164C0.000976562 2.98793 2.83882 0 6.34766 0H45.2539ZM14.1904 39.248C13.494 39.2483 12.9004 39.8461 12.9004 40.6064V46.0654C12.9005 46.7985 13.4683 47.4226 14.1904 47.4229H21.957C22.6535 47.3955 23.2206 46.7986 23.2207 46.0654V40.6064C23.2207 39.8731 22.6531 39.248 21.9307 39.248H14.1904ZM29.6709 39.248C28.9743 39.2481 28.3809 39.846 28.3809 40.6064V46.0654C28.3809 46.7986 28.9486 47.4228 29.6709 47.4229H37.4365C38.1331 47.3957 38.7011 46.7987 38.7012 46.0654V40.6064C38.7012 39.8731 38.1335 39.2481 37.4111 39.248H29.6709ZM29.6709 25.668C28.9743 25.668 28.3809 26.266 28.3809 27.0264V32.4854C28.3809 33.2186 28.9485 33.8437 29.6709 33.8438H37.4365C38.1331 33.8166 38.7012 33.2187 38.7012 32.4854V27.0264C38.7012 26.2931 38.1335 25.668 37.4111 25.668H29.6709ZM14.1904 25.6416C13.4683 25.6419 12.9005 26.266 12.9004 26.999V32.458C12.9004 33.2183 13.494 33.8162 14.1904 33.8164H21.9307C22.6531 33.8164 23.2213 33.2185 23.2471 32.458V26.999C23.247 26.2388 22.6535 25.6418 21.957 25.6416H14.1904ZM14.1904 12.0889C13.4941 12.0891 12.9005 12.6861 12.9004 13.4463V18.9053C12.9004 19.6384 13.4682 20.2634 14.1904 20.2637H21.957C22.6535 20.2364 23.2207 19.6385 23.2207 18.9053V13.4463C23.2206 12.7131 22.653 12.0889 21.9307 12.0889H14.1904ZM29.6709 12.0889C28.9744 12.0889 28.381 12.686 28.3809 13.4463V18.9053C28.3809 19.6385 28.9485 20.2636 29.6709 20.2637H37.4365C38.1331 20.2365 38.7012 19.6386 38.7012 18.9053V13.4463C38.701 12.7131 38.1334 12.0889 37.4111 12.0889H29.6709Z" fill="#B05200"/>
<path opacity="0.7" d="M55.9141 23.5435H67.8859C72.6503 23.5435 76.5126 27.4058 76.5126 32.1702V70.6284H55.9141V23.5435Z" fill="#B05200" fill-opacity="0.5"/>
</g>
</svg>
