<svg width="46" height="46" viewBox="0 0 46 46" fill="none" xmlns="http://www.w3.org/2000/svg">
<path d="M37.375 28.75C36.5844 28.75 35.9375 29.3969 35.9375 30.1875C35.9375 33.3644 33.3644 35.9375 30.1875 35.9375C29.3969 35.9375 28.75 36.5844 28.75 37.375C28.75 38.1656 29.3969 38.8125 30.1875 38.8125C34.9456 38.8125 38.8125 34.9456 38.8125 30.1875C38.8125 29.3969 38.1656 28.75 37.375 28.75Z" fill="#6A5E55"/>
<path d="M35.8512 16.9912C35.0031 8.26562 27.6287 1.4375 18.6875 1.4375C9.17125 1.4375 1.4375 9.17125 1.4375 18.6875C1.4375 27.6287 8.28 35.0031 16.9912 35.8512C19.2481 41.0981 24.4231 44.5625 30.1875 44.5625C38.1081 44.5625 44.5625 38.1081 44.5625 30.1875C44.5625 24.4231 41.0981 19.2481 35.8512 16.9912ZM4.3125 18.6875C4.3125 10.7669 10.7669 4.3125 18.6875 4.3125C26.6081 4.3125 33.0625 10.7669 33.0625 18.6875C33.0625 26.6081 26.6081 33.0625 18.6875 33.0625C10.7669 33.0625 4.3125 26.6081 4.3125 18.6875ZM30.1875 41.6875C26.0187 41.6875 22.2381 39.4019 20.2113 35.8656C28.5056 35.1325 35.1181 28.52 35.8512 20.2256C39.4019 22.2381 41.6731 26.0188 41.6731 30.2019C41.6731 36.5412 36.5125 41.7019 30.1731 41.7019L30.1875 41.6875Z" fill="#6A5E55"/>
<path d="M11.5121 12.36C12.2028 12.1299 12.9501 12.5024 13.1806 13.1929L15.3796 19.7926C15.4493 20.0018 15.5163 20.2082 15.583 20.4083L17.749 15.216L17.8397 15.04C18.0758 14.6496 18.5011 14.4055 18.9667 14.4051C19.4987 14.4053 19.9796 14.7248 20.1843 15.216L22.3476 20.4083L24.7555 13.1929C24.986 12.5031 25.731 12.1307 26.4212 12.36C27.112 12.5904 27.4871 13.3377 27.2568 14.0285L26.0776 17.5689H27.944C28.6723 17.5689 29.2634 18.16 29.2634 18.8883C29.2629 19.6161 28.672 20.2049 27.944 20.2049H25.4509C25.3662 20.2049 25.2838 20.1955 25.2035 20.1802L23.7384 24.5864C23.5643 25.1075 23.0836 25.465 22.5345 25.4852C21.9851 25.5052 21.4816 25.1817 21.2701 24.6743L18.9639 19.1494L16.666 24.6743C16.4547 25.1814 15.9504 25.5045 15.4016 25.4852C14.9206 25.4676 14.4903 25.1919 14.2746 24.7733L14.1976 24.5864L14.1949 24.5809C14.1949 24.5809 14.1916 24.571 14.1894 24.5644C14.1849 24.551 14.1787 24.5296 14.1701 24.5039C14.1527 24.4516 14.1288 24.3744 14.0959 24.2758C14.0296 24.0767 13.9317 23.7886 13.8128 23.4319L12.727 20.1802C12.6476 20.1951 12.5662 20.2049 12.4824 20.2049H9.98931C9.26131 20.2049 8.67038 19.6161 8.66992 18.8883C8.66992 18.16 9.26103 17.5689 9.98931 17.5689H11.8584L10.6765 14.0285C10.4462 13.3376 10.8212 12.5903 11.5121 12.36Z" fill="#6A5E55"/>
</svg>
