<svg width="46" height="46" viewBox="0 0 46 46" fill="none" xmlns="http://www.w3.org/2000/svg">
<path d="M13.6562 25.875C20.3981 25.875 25.875 20.3981 25.875 13.6562C25.875 6.91437 20.3981 1.4375 13.6562 1.4375C6.91437 1.4375 1.4375 6.91437 1.4375 13.6562C1.4375 20.3981 6.91437 25.875 13.6562 25.875ZM13.6562 4.3125C18.8025 4.3125 23 8.51 23 13.6562C23 18.8025 18.8025 23 13.6562 23C8.51 23 4.3125 18.8025 4.3125 13.6562C4.3125 8.51 8.51 4.3125 13.6562 4.3125Z" fill="#6A5E55"/>
<path d="M9.30469 9.84483C9.70795 9.71041 10.1449 9.92888 10.2793 10.3321L11.5625 14.1837C11.6032 14.3059 11.6427 14.4262 11.6816 14.5431L12.9463 11.5118L12.999 11.4103C13.1369 11.1822 13.3852 11.0392 13.6572 11.0392C13.9675 11.0394 14.2466 11.2255 14.3662 11.5118L15.6289 14.5431L17.0352 10.3321C17.1696 9.92934 17.6049 9.71096 18.0078 9.84483C18.4109 9.97934 18.6285 10.4162 18.4941 10.8194L17.8057 12.8858H18.8965C19.3215 12.8858 19.6659 13.2304 19.666 13.6554C19.666 14.0805 19.3216 14.4249 18.8965 14.4249H17.4414C17.3919 14.4249 17.3438 14.4192 17.2969 14.4103L16.4414 16.9815C16.3399 17.2858 16.0597 17.495 15.7393 17.5069C15.4185 17.5187 15.1245 17.3295 15.001 17.0333L13.6553 13.8077L12.3135 17.0333C12.1901 17.3294 11.8957 17.5184 11.5752 17.5069C11.2945 17.4967 11.0439 17.3353 10.918 17.0909L10.873 16.9815L10.8711 16.9776C10.8704 16.9756 10.8693 16.9724 10.8682 16.9688C10.8655 16.961 10.8614 16.9495 10.8564 16.9347C10.8463 16.9041 10.8318 16.8588 10.8125 16.8009C10.7737 16.6846 10.7169 16.5162 10.6475 16.3077L10.0146 14.4103C9.96835 14.419 9.9209 14.4249 9.87207 14.4249H8.41602C7.99116 14.4246 7.64648 14.0803 7.64648 13.6554C7.6466 13.2306 7.99123 12.8861 8.41602 12.8858H9.50684L8.81836 10.8194C8.68396 10.4162 8.90157 9.97934 9.30469 9.84483Z" fill="#6A5E55"/>
<path d="M43.125 41.6875H41.6875V13.6562C41.6875 11.6725 40.0775 10.0625 38.0938 10.0625H36.6562C34.6725 10.0625 33.0625 11.6725 33.0625 13.6562V41.6875H27.3125V29.4688C27.3125 27.485 25.7025 25.875 23.7188 25.875H22.2812C20.2975 25.875 18.6875 27.485 18.6875 29.4688V41.6875H12.9375V35.2188C12.9375 33.235 11.3275 31.625 9.34375 31.625H7.90625C5.9225 31.625 4.3125 33.235 4.3125 35.2188V41.6875H2.875C2.08437 41.6875 1.4375 42.3344 1.4375 43.125C1.4375 43.9156 2.08437 44.5625 2.875 44.5625H43.125C43.9156 44.5625 44.5625 43.9156 44.5625 43.125C44.5625 42.3344 43.9156 41.6875 43.125 41.6875ZM36.6562 12.9375H38.0938C38.4963 12.9375 38.8125 13.2538 38.8125 13.6562V18.6875H35.9375V13.6562C35.9375 13.2538 36.2537 12.9375 36.6562 12.9375ZM35.9375 21.5625H38.8125V41.6875H35.9375V21.5625ZM21.5625 29.4688C21.5625 29.0662 21.8787 28.75 22.2812 28.75H23.7188C24.1213 28.75 24.4375 29.0662 24.4375 29.4688V41.6875H21.5625V29.4688ZM7.1875 35.2188C7.1875 34.8162 7.50375 34.5 7.90625 34.5H9.34375C9.74625 34.5 10.0625 34.8162 10.0625 35.2188V41.6875H7.1875V35.2188Z" fill="#6A5E55"/>
</svg>
