<svg width="82" height="61" viewBox="0 0 82 61" fill="none" xmlns="http://www.w3.org/2000/svg">
<g opacity="0.24">
<path opacity="0.8" d="M60.9014 16.9131C66.5064 16.9133 71.0498 21.4567 71.0498 27.0615C71.0498 32.6663 66.5064 37.2098 60.9014 37.21C55.2962 37.21 50.752 32.6665 50.752 27.0615C50.752 21.4566 55.2962 16.9131 60.9014 16.9131ZM30.4502 0C37.9235 0.000143541 43.9823 6.05821 43.9824 13.5312C43.9824 21.0044 37.9236 27.0633 30.4502 27.0635C22.9766 27.0635 16.918 21.0045 16.918 13.5312C16.9181 6.05812 22.9767 0 30.4502 0Z" fill="#256854"/>
<path d="M59.5432 40.6001C71.0674 40.7261 80.4776 46.5516 81.1858 58.8647C81.2142 59.3615 81.1843 60.894 79.3498 60.894H66.3088C66.3078 53.2795 63.79 46.2531 59.5432 40.6001ZM30.3908 33.8257C46.5882 33.8257 59.8964 41.5832 60.8879 58.1821C60.9274 58.8434 60.8873 60.8892 58.3459 60.8892H2.46115C1.6128 60.8888 -0.0686662 59.0597 0.00216946 58.1802C1.31345 42.0348 14.4182 33.8258 30.3908 33.8257Z" fill="#508676"/>
</g>
</svg>
