<svg width="46" height="46" viewBox="0 0 46 46" fill="none" xmlns="http://www.w3.org/2000/svg">
<path d="M11.1406 23H11.8594C12.65 23 13.2969 22.3531 13.2969 21.5625C13.2969 20.7719 12.65 20.125 11.8594 20.125H11.1406C10.35 20.125 9.70312 20.7719 9.70312 21.5625C9.70312 22.3531 10.35 23 11.1406 23Z" fill="#6A5E55"/>
<path d="M16.8906 23H17.6094C18.4 23 19.0469 22.3531 19.0469 21.5625C19.0469 20.7719 18.4 20.125 17.6094 20.125H16.8906C16.1 20.125 15.4531 20.7719 15.4531 21.5625C15.4531 22.3531 16.1 23 16.8906 23Z" fill="#6A5E55"/>
<path d="M11.1406 27.3125H11.8594C12.65 27.3125 13.2969 26.6656 13.2969 25.875C13.2969 25.0844 12.65 24.4375 11.8594 24.4375H11.1406C10.35 24.4375 9.70312 25.0844 9.70312 25.875C9.70312 26.6656 10.35 27.3125 11.1406 27.3125Z" fill="#6A5E55"/>
<path d="M16.8906 27.3125H17.6094C18.4 27.3125 19.0469 26.6656 19.0469 25.875C19.0469 25.0844 18.4 24.4375 17.6094 24.4375H16.8906C16.1 24.4375 15.4531 25.0844 15.4531 25.875C15.4531 26.6656 16.1 27.3125 16.8906 27.3125Z" fill="#6A5E55"/>
<path d="M28.0312 17.25H35.2188C36.0094 17.25 36.6562 16.6031 36.6562 15.8125C36.6562 15.0219 36.0094 14.375 35.2188 14.375H28.0312C27.2406 14.375 26.5938 15.0219 26.5938 15.8125C26.5938 16.6031 27.2406 17.25 28.0312 17.25Z" fill="#6A5E55"/>
<path d="M28.0312 23.4746H35.2188C36.0094 23.4746 36.6562 22.8277 36.6562 22.0371C36.6562 21.2465 36.0094 20.5996 35.2188 20.5996H28.0312C27.2406 20.5996 26.5938 21.2465 26.5938 22.0371C26.5938 22.8277 27.2406 23.4746 28.0312 23.4746Z" fill="#6A5E55"/>
<path d="M28.0312 29.7129H35.2188C36.0094 29.7129 36.6562 29.066 36.6562 28.2754C36.6562 27.4848 36.0094 26.8379 35.2188 26.8379H28.0312C27.2406 26.8379 26.5938 27.4848 26.5938 28.2754C26.5938 29.066 27.2406 29.7129 28.0312 29.7129Z" fill="#6A5E55"/>
<path d="M28.0312 35.9375H35.2188C36.0094 35.9375 36.6562 35.2906 36.6562 34.5C36.6562 33.7094 36.0094 33.0625 35.2188 33.0625H28.0312C27.2406 33.0625 26.5938 33.7094 26.5938 34.5C26.5938 35.2906 27.2406 35.9375 28.0312 35.9375Z" fill="#6A5E55"/>
<path d="M43.125 41.6877H41.6875V7.18769C41.6875 6.52644 41.2419 5.95145 40.595 5.79332L23.345 1.48082C22.9137 1.38019 22.4681 1.48082 22.1087 1.73957C21.7638 2.01269 21.5625 2.42957 21.5625 2.87519V8.6252H2.875C2.08437 8.6252 1.4375 9.27207 1.4375 10.0627V15.8127C1.4375 16.6033 2.08437 17.2502 2.875 17.2502H4.3125V41.6877H2.875C2.08437 41.6877 1.4375 42.3346 1.4375 43.1252C1.4375 43.9158 2.08437 44.5627 2.875 44.5627H43.125C43.9156 44.5627 44.5625 43.9158 44.5625 43.1252C44.5625 42.3346 43.9156 41.6877 43.125 41.6877ZM38.8125 8.30895V41.6877H24.4375V4.71519L38.8125 8.30895ZM4.3125 11.5002H21.5625V14.3752H4.3125V11.5002ZM7.1875 17.2502H21.5625V41.6877H19.0469V35.2189C19.0469 33.2352 17.4369 31.6252 15.4531 31.6252H13.2969C11.3131 31.6252 9.70312 33.2352 9.70312 35.2189V41.6877H7.1875V17.2502ZM16.1719 41.6877H12.5781V35.2189C12.5781 34.8164 12.8944 34.5002 13.2969 34.5002H15.4531C15.8556 34.5002 16.1719 34.8164 16.1719 35.2189V41.6877Z" fill="#6A5E55"/>
</svg>
