<svg width="937" height="1042" viewBox="0 0 937 1042" fill="none" xmlns="http://www.w3.org/2000/svg" preserveAspectRatio="none">
<path d="M38 4.5H488C504.292 4.5 517.5 17.7076 517.5 34V107.5H8.5V34C8.5 17.7076 21.7076 4.5 38 4.5Z" fill="#EEE0CD" fill-opacity="0.6" style="mix-blend-mode:multiply"/>
<path d="M38 4.5H488C504.292 4.5 517.5 17.7076 517.5 34V107.5H8.5V34C8.5 17.7076 21.7076 4.5 38 4.5Z" stroke="url(#paint0_linear_953_122)"/>
<g filter="url(#filter0_d_953_122)">
<mask id="path-2-inside-1_953_122" fill="white">
<path d="M 899 34 C 915.569 34 929 47.4315 929 64 V 1022 C 929 1026.418 925.418 1030 921 1030 H 16 C 11.5817 1030 8 1026.418 8 1022 V 91 C 8 86.5817 11.5817 83 16 83 H 362.562 C 370.688 83 378.007 78.0819 381.078 70.5576 L 393.969 38.9768 C 395.197 35.9671 398.125 34 401.375 34 H 899 Z"/>
</mask>
<path d="M 899 34 C 915.569 34 929 47.4315 929 64 V 1022 C 929 1026.418 925.418 1030 921 1030 H 16 C 11.5817 1030 8 1026.418 8 1022 V 91 C 8 86.5817 11.5817 83 16 83 H 362.562 C 370.688 83 378.007 78.0819 381.078 70.5576 L 393.969 38.9768 C 395.197 35.9671 398.125 34 401.375 34 H 899 Z" fill="url(#paint1_linear_953_122)" shape-rendering="crispEdges"/>
<path d="M 899 34 C 915.569 34 929 47.4315 929 64 V 1022 C 929 1026.418 925.418 1030 921 1030 H 16 C 11.5817 1030 8 1026.418 8 1022 V 91 C 8 86.5817 11.5817 83 16 83 H 362.562 C 370.688 83 378.007 78.0819 381.078 70.5576 L 393.969 38.9768 C 395.197 35.9671 398.125 34 401.375 34 H 899 Z" fill="url(#paint2_linear_953_122)" shape-rendering="crispEdges"/>
<path d="M 929 64 H 930 V 64 H 929 Z M 929 1022 H 930 V 1022 H 929 Z M 921 1030 V 1031 V 1031 V 1030 Z M 362.562 83 V 84 V 84 V 83 Z M 381.078 70.5576 L 380.152 70.1797 V 70.1797 L 381.078 70.5576 Z M 899 34 V 35 C 915.016 35 928 47.9837 928 64 H 929 H 930 C 930 46.8792 916.121 33 899 33 V 34 Z M 929 64 H 928 V 1022 H 929 H 930 V 64 H 929 Z M 929 1022 H 928 C 928 1025.866 924.866 1029 921 1029 V 1030 V 1031 C 925.971 1031 930 1026.971 930 1022 H 929 Z M 921 1030 V 1029 H 16 V 1030 V 1031 H 921 V 1030 Z M 16 1030 V 1029 C 12.134 1029 9 1025.866 9 1022 H 8 H 7 C 7 1026.971 11.0294 1031 16 1031 V 1030 Z M 8 1022 H 9 V 91 H 8 H 7 V 1022 H 8 Z M 16 83 V 84 H 362.562 V 83 V 82 H 16 V 83 Z M 362.562 83 V 84 C 371.095 84 378.779 78.836 382.004 70.9355 L 381.078 70.5576 L 380.152 70.1797 C 377.235 77.3278 370.282 82 362.562 82 V 83 Z M 381.078 70.5576 L 382.004 70.9355 L 394.894 39.3547 L 393.969 38.9768 L 393.043 38.5988 L 380.152 70.1797 L 381.078 70.5576 Z M 401.375 34 V 35 H 899 V 34 V 33 H 401.375 V 34 Z M 393.969 38.9768 L 394.894 39.3547 C 395.969 36.7212 398.531 35 401.375 35 V 34 V 33 C 397.718 33 394.425 35.2129 393.043 38.5988 L 393.969 38.9768 Z M 8 91 H 9 C 9 87.134 12.134 84 16 84 V 83 V 82 C 11.0294 82 7 86.0294 7 91 H 8 Z" fill="url(#paint3_linear_953_122)" mask="url(#path-2-inside-1_953_122)"/>
</g>
<defs>
<filter id="filter0_d_953_122" x="0" y="0" width="937" height="1042" filterUnits="userSpaceOnUse" color-interpolation-filters="sRGB">
<feFlood flood-opacity="0" result="BackgroundImageFix"/>
<feColorMatrix in="SourceAlpha" type="matrix" values="0 0 0 0 0 0 0 0 0 0 0 0 0 0 0 0 0 0 127 0" result="hardAlpha"/>
<feOffset dy="4"/>
<feGaussianBlur stdDeviation="4"/>
<feComposite in2="hardAlpha" operator="out"/>
<feColorMatrix type="matrix" values="0 0 0 0 0 0 0 0 0 0 0 0 0 0 0 0 0 0 0.1 0"/>
<feBlend mode="normal" in2="BackgroundImageFix" result="effect1_dropShadow_953_122"/>
<feBlend mode="normal" in="SourceGraphic" in2="effect1_dropShadow_953_122" result="shape"/>
</filter>
<linearGradient id="paint0_linear_953_122" x1="263" y1="78" x2="263" y2="4" gradientUnits="userSpaceOnUse">
<stop stop-color="#EACBB0" stop-opacity="0"/>
<stop offset="0.7" stop-color="#EACBB0"/>
<stop offset="1" stop-color="#EACBB0"/>
</linearGradient>
<linearGradient id="paint1_linear_953_122" x1="1028" y1="1293" x2="397.098" y2="432.301" gradientUnits="userSpaceOnUse">
<stop stop-color="#F4E6D2"/>
<stop offset="1" stop-color="#F0EDE6" stop-opacity="0"/>
</linearGradient>
<linearGradient id="paint2_linear_953_122" x1="317.681" y1="19.3231" x2="1256.09" y2="1014.24" gradientUnits="userSpaceOnUse">
<stop stop-color="white"/>
<stop offset="1" stop-color="white" stop-opacity="0"/>
</linearGradient>
<linearGradient id="paint3_linear_953_122" x1="206.075" y1="-170.026" x2="1104.32" y2="879.737" gradientUnits="userSpaceOnUse">
<stop offset="0.235813" stop-color="#B05200" stop-opacity="0.5"/>
<stop offset="0.778618" stop-color="#EACBB0" stop-opacity="0"/>
<stop offset="1" stop-color="#EACBB0" stop-opacity="0"/>
</linearGradient>
</defs>
</svg>
