<svg width="22" height="21" viewBox="0 0 22 21" fill="none" xmlns="http://www.w3.org/2000/svg">
<path d="M3.71571 20.0804C3.71571 20.0804 2.73279 20.8303 2.72266 20.7999C2.71253 20.7695 19.7767 20.7999 20.1465 20.7999C20.5164 20.7999 21.0839 20.5922 21.2004 20.2274C21.3169 19.8626 3.71571 20.0754 3.71571 20.0754V20.0804Z" fill="url(#paint0_radial_970_170)" style="mix-blend-mode:multiply"/>
<path d="M3.69577 20.298L3.36138 20.5766C3.36138 20.5766 3.35124 20.6374 3.37658 20.6374H20.3293C20.765 20.6374 21.2108 20.4702 21.3476 20.1966C21.4844 19.923 21.5047 19.4062 21.5047 19.4062H3.7515L3.6907 20.298H3.69577Z" fill="url(#paint1_radial_970_170)" style="mix-blend-mode:multiply"/>
<path d="M0.240197 18.8542C-0.230992 19.9385 -0.0435298 20.7035 1.11164 20.6833C2.26682 20.663 3.29533 20.2627 4.4505 19.0924C5.16489 18.3678 4.82036 17.3748 3.80705 17.3089C2.79881 17.238 0.85325 17.4457 0.235131 18.8593L0.240197 18.8542Z" fill="url(#paint2_radial_970_170)" style="mix-blend-mode:multiply"/>
<path d="M0.362106 19.0409C-0.11415 19.8566 0.0023808 20.4291 1.00556 20.4088C2.00874 20.3886 2.93085 20.0846 4.00496 19.203C4.66868 18.6558 4.43055 17.9161 3.5591 17.8654C2.68765 17.8147 0.985292 17.9819 0.362106 19.0409Z" fill="url(#paint3_radial_970_170)" style="mix-blend-mode:multiply"/>
<path d="M16.8076 0.00701967H17.213C16.1135 0.625139 15.1357 1.44085 14.3352 2.4187C14.3352 2.4187 14.2693 2.46936 13.8336 3.00135C13.641 3.23441 13.1496 3.8728 12.1515 5.3877C11.964 5.67649 10.1451 8.55936 9.86645 9.02548C9.36486 9.8564 8.45288 11.3713 8.06276 12.0046C7.67263 12.6379 5.79801 15.4296 5.39268 15.9717C4.98736 16.5138 4.33378 17.2181 3.88792 17.6589C3.44206 18.0997 2.85434 18.505 2.71754 18.5861C2.43382 18.7533 2.07916 18.8951 1.86636 18.9255C1.73463 18.9458 1.65863 18.9509 1.59784 18.9509C1.56237 18.9509 1.53704 18.9509 1.50664 18.9509C1.03038 18.9154 0.660524 18.5253 0.650391 18.049C0.650391 18.0439 0.650391 18.0338 0.650391 18.0287V12.9065C0.650391 12.9065 1.39011 12.8862 2.07916 12.7393C2.76821 12.5923 4.77963 12.0756 6.92278 10.5759C8.57448 9.42068 9.54219 8.39217 10.4187 7.17619C11.2952 5.96022 11.9792 4.98238 12.5517 4.23253C13.1242 3.48268 14.2288 2.21097 14.5986 1.81578C14.9685 1.42059 16.3364 0.280614 16.3364 0.280614C16.4631 0.184349 16.6607 0.0728849 16.8026 0.00195312L16.8076 0.00701967Z" fill="url(#paint4_linear_970_170)"/>
<path d="M14.3351 2.41833C14.3351 2.41833 14.2895 2.4538 14.026 2.76792L13.9551 2.71219C14.4161 2.15487 14.8265 1.63808 15.3788 1.14156L16.3313 0.290379H16.3364C16.463 0.194115 16.6606 0.0826505 16.8025 0.0117188H17.2078C16.1084 0.629838 15.1305 1.44555 14.33 2.4234L14.3351 2.41833Z" fill="url(#paint5_linear_970_170)"/>
<path d="M6.47577 14.284C6.5619 14.1624 6.64803 14.0408 6.73416 13.9141L6.78989 13.9496C6.20217 14.821 5.60432 15.6976 5.39659 15.9813C4.99127 16.5234 4.33768 17.2277 3.89182 17.6684C3.44597 18.1092 2.85825 18.5146 2.72145 18.5956C2.43772 18.7628 2.08306 18.9047 1.87027 18.9351C1.73854 18.9553 1.66254 18.9604 1.60174 18.9604C1.56628 18.9604 1.54094 18.9604 1.51054 18.9604C1.03429 18.9249 0.66443 18.5348 0.654297 18.0586C0.654297 18.0535 0.654297 18.0434 0.654297 18.0383V12.916C0.654297 12.916 0.694829 12.916 0.770828 12.916C0.770828 15.6722 0.775894 17.8508 0.775894 17.9471C0.775894 18.1903 0.912691 18.626 1.43961 18.7679C1.99693 18.9199 2.85825 18.393 3.05078 18.241C3.67903 17.7546 4.32248 17.0149 4.35795 16.9693C4.49474 16.8274 4.61634 16.7007 4.70754 16.5943C4.93047 16.3359 5.75125 15.277 6.12617 14.7602L6.4707 14.2891L6.47577 14.284Z" fill="url(#paint6_linear_970_170)"/>
<path d="M17.2126 0.00585938H17.3798C17.3798 0.00585938 16.3563 0.730376 15.4089 1.61702C14.4665 2.4986 12.8706 4.76335 12.1967 5.7868C11.5228 6.81024 10.2765 8.85713 9.69889 9.86031C9.1213 10.8635 7.13521 14.1415 6.00537 15.8135C4.87553 17.4855 3.98382 18.3873 3.48223 18.8636C2.98064 19.3348 2.02306 20.1657 1.34414 19.9174C0.665223 19.6692 0.660156 19.1372 0.660156 19.0764V18.058C0.670289 18.5342 1.04015 18.9244 1.5164 18.9598C1.5468 18.9598 1.57214 18.9598 1.6076 18.9598C1.6684 18.9598 1.7444 18.9548 1.87613 18.9345C2.08892 18.899 2.44358 18.7622 2.72731 18.595C2.86411 18.514 3.45689 18.1087 3.89768 17.6679C4.34354 17.2271 4.99206 16.5228 5.40245 15.9807C5.81284 15.4386 7.6824 12.6418 8.07252 12.0136C8.46265 11.3803 9.37463 9.86537 9.87622 9.03446C10.1599 8.56833 11.9738 5.68547 12.1612 5.39667C13.1593 3.88177 13.6508 3.24339 13.8433 3.01033C14.2791 2.47834 14.3449 2.42767 14.3449 2.42767C15.1454 1.44983 16.1233 0.634112 17.2227 0.0159925L17.2126 0.00585938Z" fill="url(#paint7_linear_970_170)"/>
<path d="M1.85507 0.00585938H16.8065C16.6646 0.0767911 16.467 0.183189 16.3403 0.28452C16.3403 0.28452 14.9724 1.42449 14.6025 1.81969C14.2327 2.21488 13.1282 3.49165 12.5556 4.23643C11.9831 4.98628 11.2941 5.96919 10.4226 7.1801C9.55116 8.39101 8.57839 9.42458 6.92669 10.5798C4.78354 12.0795 2.77212 12.5962 2.08307 12.7432C1.39401 12.8901 0.654297 12.9104 0.654297 12.9104V1.20157C0.654297 0.542914 1.19135 0.00585938 1.85 0.00585938H1.85507Z" fill="url(#paint8_radial_970_170)"/>
<path d="M16.5188 0.128906L16.3769 0.25557H1.91699C1.4914 0.25557 1.14181 0.600096 1.14181 1.03075V12.8865C1.08101 12.8916 1.02527 12.8966 0.974609 12.9017V1.07635C0.974609 0.554497 1.4002 0.128906 1.92205 0.128906H16.5188Z" fill="url(#paint9_linear_970_170)"/>
<path d="M6.73438 13.908C7.11943 13.3355 7.48422 12.7123 7.82875 12.1347C7.82875 12.1347 11.3652 6.32846 12.0999 5.18848C12.3177 4.84902 12.4849 4.5957 12.6318 4.38797C12.642 4.37277 12.647 4.3677 12.647 4.3677C12.9764 3.88131 13.179 3.64318 13.5489 3.19733L13.7668 2.93893C13.8326 2.86293 13.8934 2.78694 13.9593 2.71094L14.0302 2.76667C13.9745 2.83253 13.9137 2.90853 13.8377 2.99973C13.6452 3.23279 13.1537 3.87118 12.1556 5.38608C11.9681 5.67487 10.1492 8.55774 9.87057 9.02386C9.36898 9.85478 8.457 11.3697 8.06688 12.003C7.87942 12.307 7.34236 13.1227 6.79011 13.9384L6.73438 13.903V13.908Z" fill="url(#paint10_linear_970_170)"/>
<path d="M1.23828 12.8754C1.826 12.7792 5.08886 12.1661 7.71334 9.89124C8.99517 8.78167 9.98315 7.67209 11.2093 5.9292C12.4404 4.18124 13.6564 2.81833 14.2036 2.19008C14.7356 1.58716 15.911 0.644783 15.987 0.583984C15.5564 0.948776 14.8572 1.55676 14.6089 1.82022C14.2391 2.21541 13.1345 3.49219 12.562 4.23697C11.9895 4.98682 11.3005 5.96973 10.429 7.18064C9.55756 8.39154 8.58478 9.42512 6.93309 10.5803C4.78994 12.08 2.77851 12.5968 2.08946 12.7437C1.7956 12.8096 1.49161 12.845 1.24335 12.8704L1.23828 12.8754Z" fill="url(#paint11_linear_970_170)"/>
<path d="M4.27879 17.0554C4.10147 17.2277 3.90387 17.4151 3.71134 17.5874C3.43268 17.8306 3.02736 18.1194 2.86016 18.2106C2.69296 18.3018 2.4295 18.4386 2.22177 18.5247C2.01405 18.6058 1.87725 18.6362 1.69992 18.6261H1.65432C1.27433 18.6007 0.980469 18.2815 0.980469 17.9015V12.8958C1.03113 12.8958 1.08687 12.8856 1.14767 12.8806V17.8255C1.14767 17.9573 1.17806 18.089 1.23886 18.2055C1.31486 18.3525 1.45166 18.5095 1.70499 18.545C2.19644 18.621 3.19455 17.9269 3.47321 17.6887C3.47321 17.6887 3.99 17.248 4.40546 16.8224C4.82092 16.3968 5.49983 15.4848 5.49983 15.4848C5.49983 15.4848 6.17875 14.5779 6.8982 13.524C7.48086 12.6729 9.46188 9.41506 9.45175 9.42013C9.43655 9.42013 11.4834 6.10153 11.7925 5.62528C12.0712 5.19462 12.5525 4.50557 12.6386 4.37891C12.4967 4.58663 12.3295 4.84503 12.1066 5.17942C11.372 6.3194 7.83552 12.1257 7.83552 12.1257C7.49099 12.7033 7.1262 13.3264 6.74114 13.899C6.65501 14.0256 6.56888 14.1523 6.48275 14.2688L6.13822 14.74C5.76329 15.2568 4.94251 16.3157 4.71959 16.5741C4.62839 16.6805 4.50679 16.8072 4.36999 16.949C4.33959 16.9794 4.30919 17.0098 4.27879 17.0352V17.0554Z" fill="url(#paint12_linear_970_170)"/>
<path d="M1.00062 0.371094C0.975286 0.401493 0.949954 0.426826 0.929688 0.447092C0.949954 0.421759 0.975286 0.39136 1.00062 0.371094Z" fill="#009944"/>
<path d="M0.928411 0.447266C0.928411 0.447266 0.892946 0.487798 0.882812 0.508064C0.898012 0.482731 0.913212 0.462465 0.928411 0.447266Z" fill="#009944"/>
<path d="M0.878018 0.513672C0.827353 0.599803 0.791887 0.731534 0.781754 1.09633C0.766554 1.47125 0.77162 8.0831 0.776687 12.9115C0.700689 12.9115 0.660156 12.9115 0.660156 12.9115V1.20272C0.660156 0.944329 0.741221 0.706201 0.878018 0.513672Z" fill="url(#paint13_linear_970_170)"/>
<path d="M21.5005 18.2168V19.2301C21.5005 19.833 21.0141 20.3194 20.4111 20.3194H3.74219V19.3517H20.3655C20.9938 19.3517 21.5005 18.845 21.5005 18.2168Z" fill="url(#paint14_linear_970_170)"/>
<path d="M21.5005 18.2168V19.2301C21.5005 19.833 21.0141 20.3194 20.4111 20.3194H3.74219V19.3517H20.3655C20.9938 19.3517 21.5005 18.845 21.5005 18.2168Z" fill="url(#paint15_linear_970_170)"/>
<path d="M21.5005 18.1609V18.2167C21.5005 18.8449 20.9938 19.3516 20.3655 19.3516H3.74219C4.5883 18.8753 5.53575 18.1407 6.34133 17.2489C6.72639 16.8436 7.09625 16.565 7.5877 15.9874C7.5877 15.9874 9.29513 13.7378 10.3338 12.4104C11.3724 11.083 13.3686 9.05633 16.0488 7.75929C18.7291 6.46732 20.1832 6.34066 21.5005 6.18359V18.1609Z" fill="url(#paint16_linear_970_170)"/>
<path d="M6.33594 17.2478C6.59433 16.964 6.83753 16.66 7.06045 16.3459C7.97243 15.054 7.9927 15.0236 8.28149 14.5828C8.51962 14.218 9.22387 13.1033 9.60386 12.4953C9.98386 11.8823 11.4582 9.35408 11.9497 8.50797C12.4411 7.66185 13.9408 5.3059 14.3208 4.74352C14.7008 4.18113 15.3291 3.31981 15.7952 2.73209L16.1347 2.3369C16.3018 2.14437 16.469 1.96198 16.6464 1.77958L16.8744 1.54652C17.1733 1.23746 17.5077 0.968934 17.8674 0.735873H17.8775C18.0143 0.634542 18.1511 0.548411 18.2981 0.472412L18.4855 0.371081C18.977 0.112687 19.5242 -0.0139767 20.0764 0.00122296L20.3602 0.0113561C20.9935 0.0316223 21.5001 0.548411 21.5001 1.18173V6.18242C20.1828 6.33441 18.7287 6.46108 16.0485 7.75811C13.3683 9.05009 11.367 11.0818 10.3334 12.4092C9.2948 13.7366 7.58738 15.9862 7.58738 15.9862C7.09592 16.5638 6.72606 16.8424 6.341 17.2478H6.33594Z" fill="url(#paint17_linear_970_170)"/>
<path d="M21.5005 18.1609V18.2167C21.5005 18.8449 20.9938 19.3516 20.3655 19.3516H3.74219C4.5883 18.8753 7.09625 16.565 7.5877 15.9874C7.5877 15.9874 9.29513 13.7378 10.3338 12.4104C11.3724 11.083 13.3686 9.05633 16.0488 7.75929C18.7291 6.46732 20.1832 6.34066 21.5005 6.18359V18.1609Z" fill="url(#paint18_linear_970_170)"/>
<path d="M20.3657 19.3504H3.98047V19.2947C3.98047 19.2947 3.9906 19.2947 4.01087 19.2795H20.2796C20.8724 19.2795 21.3537 18.7982 21.3537 18.2054V6.2027C21.3993 6.19763 21.4499 6.19257 21.4955 6.1875V18.2206C21.4955 18.8488 20.9889 19.3555 20.3606 19.3555L20.3657 19.3504Z" fill="url(#paint19_linear_970_170)"/>
<path d="M21.4993 1.18225V6.18293C21.4537 6.188 21.4031 6.19307 21.3575 6.19813V0.923852C21.3575 0.695857 21.2207 0.427329 21.0332 0.25C21.3169 0.462795 21.4993 0.802254 21.4993 1.18731V1.18225Z" fill="url(#paint20_linear_970_170)"/>
<path d="M20.3803 0.240428C20.1523 0.189763 19.9547 0.169497 19.8027 0.159363C19.8635 0.159363 19.9243 0.154297 19.9801 0.154297C20.1574 0.154297 20.3297 0.169496 20.5019 0.199896C20.6032 0.220162 20.7046 0.255628 20.7907 0.31136C20.8768 0.367092 20.9579 0.432957 21.0187 0.519089C21.1352 0.671085 21.196 0.858548 21.196 1.05108V6.21896C21.1403 6.22403 21.0846 6.23416 21.0288 6.23923V1.08654C21.0288 0.691351 20.7603 0.321493 20.3753 0.240428H20.3803Z" fill="url(#paint21_linear_970_170)"/>
<path d="M12.351 10.4278C10.6689 11.9225 9.28066 13.9288 8.47508 14.9523C7.72016 15.9149 7.20338 16.5128 7.14258 16.5837C7.15778 16.5634 7.17804 16.5381 7.19324 16.5178C7.30471 16.3709 7.4415 16.1834 7.58843 15.9808C7.58843 15.9808 7.58843 15.9808 7.58843 15.9757C7.68977 15.844 9.32626 13.6907 10.3294 12.4038C11.3681 11.0763 13.3643 9.04973 16.0445 7.75269C16.465 7.55003 16.8602 7.3727 17.225 7.2207C15.7405 7.83376 14.0027 8.95346 12.3459 10.4228L12.351 10.4278Z" fill="url(#paint22_linear_970_170)"/>
<path d="M21.201 6.2168V18.1941C21.201 18.6906 20.8007 19.0909 20.3042 19.0909H4.53711L4.73977 18.949H20.2688C20.6893 18.949 21.0287 18.6096 21.0287 18.1891V6.23706C21.0845 6.232 21.1402 6.22186 21.1959 6.2168H21.201Z" fill="url(#paint23_linear_970_170)"/>
<path d="M13.8299 5.68183C14.22 5.07384 15.0762 3.9136 15.664 3.13335C15.8565 2.87495 16.0591 2.62669 16.2669 2.37843C16.4746 2.13524 16.6925 1.89711 16.9154 1.66405C17.0725 1.50699 17.2346 1.35499 17.4069 1.21313C17.5791 1.07126 17.7564 0.939531 17.9439 0.817934C17.954 0.812867 17.9591 0.807801 17.9692 0.802734C17.5994 1.051 17.2549 1.33979 16.9458 1.65898C16.7229 1.89204 16.505 2.13017 16.2973 2.37337C16.0895 2.61656 15.8869 2.86989 15.6994 3.12828C15.1168 3.9136 14.2605 5.07891 13.8755 5.69196C13.2573 6.66474 11.5043 9.65907 11.3371 9.93773C11.1699 10.2164 9.62463 12.851 9.18384 13.5856C8.83931 14.1632 8.13506 15.212 7.59294 15.972V15.9771C7.44601 16.1848 7.31428 16.3672 7.19775 16.5141C7.18255 16.5344 7.16228 16.5597 7.14708 16.58L7.14202 16.585C6.63029 17.2589 6.08817 17.8872 5.29779 18.5205C5.12046 18.6623 4.9178 18.8143 4.74047 18.941L4.53781 19.0829H4.33008C4.53274 18.9511 4.90767 18.6826 5.21672 18.4394C6.03751 17.7909 6.58976 17.1424 7.12175 16.4432C7.65374 15.744 8.67718 14.2544 9.11797 13.5248C9.55876 12.7953 11.1142 10.1708 11.2814 9.89213C11.4486 9.61347 13.2067 6.63434 13.8299 5.66663V5.68183Z" fill="url(#paint24_linear_970_170)"/>
<defs>
<radialGradient id="paint0_radial_970_170" cx="0" cy="0" r="1" gradientUnits="userSpaceOnUse" gradientTransform="translate(11.8849 20.4059) scale(8.75956 0.171756)">
<stop stop-color="#A6A6A7"/>
<stop offset="0.12" stop-color="#A6A6A7" stop-opacity="0.96"/>
<stop offset="0.29" stop-color="#A6A6A7" stop-opacity="0.86"/>
<stop offset="0.47" stop-color="#A6A6A7" stop-opacity="0.69"/>
<stop offset="0.68" stop-color="#A6A6A7" stop-opacity="0.46"/>
<stop offset="0.89" stop-color="#A6A6A7" stop-opacity="0.16"/>
<stop offset="1" stop-color="#A6A6A7" stop-opacity="0"/>
</radialGradient>
<radialGradient id="paint1_radial_970_170" cx="0" cy="0" r="1" gradientUnits="userSpaceOnUse" gradientTransform="translate(12.3545 20.2826) scale(8.38515 0.251554)">
<stop stop-color="#595757"/>
<stop offset="0.05" stop-color="#636262"/>
<stop offset="0.35" stop-color="#747373" stop-opacity="0.97"/>
<stop offset="0.8" stop-color="#B5B5B6" stop-opacity="0"/>
</radialGradient>
<radialGradient id="paint2_radial_970_170" cx="0" cy="0" r="1" gradientTransform="matrix(2.21139 -0.4471 -0.214524 1.55688 2.21143 18.8321)" gradientUnits="userSpaceOnUse">
<stop offset="0.35" stop-color="#727171"/>
<stop offset="0.5" stop-color="#727171" stop-opacity="0.79"/>
<stop offset="0.82" stop-color="#727171" stop-opacity="0.26"/>
<stop offset="0.96" stop-color="#727171" stop-opacity="0"/>
</radialGradient>
<radialGradient id="paint3_radial_970_170" cx="0" cy="0" r="1" gradientTransform="matrix(2.07071 -0.430709 -0.329295 1.20756 2.14319 19.159)" gradientUnits="userSpaceOnUse">
<stop offset="0.26" stop-color="#727171"/>
<stop offset="0.35" stop-color="#727171" stop-opacity="0.86"/>
<stop offset="0.63" stop-color="#727171" stop-opacity="0.4"/>
<stop offset="0.85" stop-color="#727171" stop-opacity="0.11"/>
<stop offset="0.96" stop-color="#727171" stop-opacity="0"/>
</radialGradient>
<linearGradient id="paint4_linear_970_170" x1="0.802387" y1="17.5576" x2="6.1172" y2="10.3073" gradientUnits="userSpaceOnUse">
<stop stop-color="#BF1A20"/>
<stop offset="1" stop-color="#BE1A21"/>
</linearGradient>
<linearGradient id="paint5_linear_970_170" x1="13.9601" y1="1.38982" x2="17.2129" y2="1.38982" gradientUnits="userSpaceOnUse">
<stop stop-color="#BE1E21"/>
<stop offset="1" stop-color="#CB171D"/>
</linearGradient>
<linearGradient id="paint6_linear_970_170" x1="0.335104" y1="15.4949" x2="4.82914" y2="16.6146" gradientUnits="userSpaceOnUse">
<stop stop-color="#EB6668"/>
<stop offset="0.28" stop-color="#DA3436"/>
<stop offset="0.45" stop-color="#D21B1D"/>
<stop offset="0.72" stop-color="#871C21"/>
<stop offset="1" stop-color="#941E23"/>
</linearGradient>
<linearGradient id="paint7_linear_970_170" x1="4.6526" y1="9.33338" x2="2.09906" y2="8.98886" gradientUnits="userSpaceOnUse">
<stop stop-color="#882323"/>
<stop offset="0.43" stop-color="#962426"/>
<stop offset="1" stop-color="#DE8388"/>
</linearGradient>
<radialGradient id="paint8_radial_970_170" cx="0" cy="0" r="1" gradientUnits="userSpaceOnUse" gradientTransform="translate(8.51961 6.29244) scale(7.33718)">
<stop offset="0.3" stop-color="#EA5541"/>
<stop offset="0.71" stop-color="#E03B33"/>
<stop offset="1" stop-color="#D92728"/>
</radialGradient>
<linearGradient id="paint9_linear_970_170" x1="-0.0184349" y1="6.96875" x2="15.3231" y2="2.19099" gradientUnits="userSpaceOnUse">
<stop offset="0.06" stop-color="#EF9697" stop-opacity="0.2"/>
<stop offset="0.21" stop-color="#EF9697"/>
<stop offset="0.29" stop-color="#E64747"/>
<stop offset="0.46" stop-color="#F3A99D"/>
<stop offset="0.66" stop-color="#F3A99D" stop-opacity="0.99"/>
<stop offset="0.73" stop-color="#F3A99D" stop-opacity="0.96"/>
<stop offset="0.78" stop-color="#F3A99D" stop-opacity="0.92"/>
<stop offset="0.82" stop-color="#F3A99D" stop-opacity="0.85"/>
<stop offset="0.85" stop-color="#F3A99D" stop-opacity="0.76"/>
<stop offset="0.88" stop-color="#F3A99D" stop-opacity="0.64"/>
<stop offset="0.91" stop-color="#F3A99D" stop-opacity="0.51"/>
<stop offset="0.93" stop-color="#F3A99D" stop-opacity="0.35"/>
<stop offset="0.96" stop-color="#F3A99D" stop-opacity="0.19"/>
<stop offset="0.98" stop-color="#F3A99D" stop-opacity="0"/>
</linearGradient>
<linearGradient id="paint10_linear_970_170" x1="8.4722" y1="7.85349" x2="11.6439" y2="8.64387" gradientUnits="userSpaceOnUse">
<stop stop-color="#941E23"/>
<stop offset="0.28" stop-color="#AF1E24"/>
<stop offset="0.6" stop-color="#B01E23"/>
<stop offset="1" stop-color="#C9181D"/>
</linearGradient>
<linearGradient id="paint11_linear_970_170" x1="3.81716" y1="12.0749" x2="14.2999" y2="2.46874" gradientUnits="userSpaceOnUse">
<stop stop-color="#E94F4B" stop-opacity="0"/>
<stop offset="0.47" stop-color="#E94F4B" stop-opacity="0.5"/>
<stop offset="1" stop-color="#E94F4B" stop-opacity="0"/>
</linearGradient>
<linearGradient id="paint12_linear_970_170" x1="0.960203" y1="16.4981" x2="10.4195" y2="7.89003" gradientUnits="userSpaceOnUse">
<stop offset="0.23" stop-color="#EF9697" stop-opacity="0.2"/>
<stop offset="0.54" stop-color="#EF9697" stop-opacity="0.5"/>
<stop offset="0.88" stop-color="#F3A99D" stop-opacity="0"/>
</linearGradient>
<linearGradient id="paint13_linear_970_170" x1="0.766554" y1="1.39019" x2="0.766554" y2="4.41998" gradientUnits="userSpaceOnUse">
<stop stop-color="#E72D2D" stop-opacity="0"/>
<stop offset="0.04" stop-color="#E73333" stop-opacity="0.11"/>
<stop offset="0.13" stop-color="#E84344" stop-opacity="0.39"/>
<stop offset="0.26" stop-color="#EA5C5E" stop-opacity="0.84"/>
<stop offset="0.3" stop-color="#EB6668"/>
</linearGradient>
<linearGradient id="paint14_linear_970_170" x1="3.74219" y1="19.2656" x2="21.5005" y2="19.2656" gradientUnits="userSpaceOnUse">
<stop stop-color="#1A3889"/>
<stop offset="0.36" stop-color="#324E92"/>
<stop offset="0.84" stop-color="#2A418E"/>
<stop offset="1" stop-color="#6576B8"/>
</linearGradient>
<linearGradient id="paint15_linear_970_170" x1="12.6188" y1="19.4328" x2="12.6188" y2="20.2789" gradientUnits="userSpaceOnUse">
<stop stop-color="#1A3889" stop-opacity="0"/>
<stop offset="1" stop-color="#1B2858"/>
</linearGradient>
<linearGradient id="paint16_linear_970_170" x1="11.57" y1="12.0507" x2="20.3453" y2="18.0393" gradientUnits="userSpaceOnUse">
<stop stop-color="#3D76BB" stop-opacity="0"/>
<stop offset="0.81" stop-color="#183390" stop-opacity="0.96"/>
<stop offset="1" stop-color="#1D2B6D"/>
</linearGradient>
<linearGradient id="paint17_linear_970_170" x1="20.6692" y1="-0.697962" x2="15.9472" y2="7.98611" gradientUnits="userSpaceOnUse">
<stop offset="0.06" stop-color="#1E2C68"/>
<stop offset="0.2" stop-color="#19348B"/>
<stop offset="1" stop-color="#284DA0"/>
</linearGradient>
<linearGradient id="paint18_linear_970_170" x1="12.6188" y1="10.9816" x2="12.6188" y2="19.7012" gradientUnits="userSpaceOnUse">
<stop stop-color="#3D76BB"/>
<stop offset="0.9" stop-color="#284DA0"/>
<stop offset="0.97" stop-color="#1E2C60"/>
</linearGradient>
<linearGradient id="paint19_linear_970_170" x1="8.97609" y1="17.9824" x2="18.3897" y2="13.8988" gradientUnits="userSpaceOnUse">
<stop stop-color="#1A3067" stop-opacity="0"/>
<stop offset="0.16" stop-color="#2151A2" stop-opacity="0.4"/>
<stop offset="0.42" stop-color="#234493"/>
<stop offset="0.89" stop-color="#234493"/>
<stop offset="1" stop-color="#4469B1"/>
</linearGradient>
<linearGradient id="paint20_linear_970_170" x1="21.2663" y1="5.86374" x2="21.2663" y2="3.50779" gradientUnits="userSpaceOnUse">
<stop stop-color="#4964AE"/>
<stop offset="1" stop-color="#4570B7" stop-opacity="0"/>
</linearGradient>
<linearGradient id="paint21_linear_970_170" x1="19.7166" y1="-0.321959" x2="21.9915" y2="5.99097" gradientUnits="userSpaceOnUse">
<stop stop-color="#EDF7FA" stop-opacity="0"/>
<stop offset="1" stop-color="#EDF7FA" stop-opacity="0.4"/>
</linearGradient>
<linearGradient id="paint22_linear_970_170" x1="11.1705" y1="12.2518" x2="15.8368" y2="8.42654" gradientUnits="userSpaceOnUse">
<stop stop-color="#629ED5"/>
<stop offset="1" stop-color="#427FC2" stop-opacity="0"/>
</linearGradient>
<linearGradient id="paint23_linear_970_170" x1="4.83097" y1="18.6349" x2="20.7957" y2="12.6463" gradientUnits="userSpaceOnUse">
<stop stop-color="#5B8DB6"/>
<stop offset="0.06" stop-color="#91B8D1" stop-opacity="0.99"/>
<stop offset="0.1" stop-color="#B5D5E3" stop-opacity="0.98"/>
<stop offset="0.13" stop-color="#C3E1EA" stop-opacity="0.98"/>
<stop offset="0.14" stop-color="#BADDE8" stop-opacity="0.95"/>
<stop offset="0.17" stop-color="#9FD0E4" stop-opacity="0.84"/>
<stop offset="0.21" stop-color="#8BC6E1" stop-opacity="0.76"/>
<stop offset="0.24" stop-color="#7FC1DF" stop-opacity="0.72"/>
<stop offset="0.26" stop-color="#7BBFDF" stop-opacity="0.7"/>
<stop offset="0.27" stop-color="#73B5D9" stop-opacity="0.73"/>
<stop offset="0.35" stop-color="#4E84BF" stop-opacity="0.88"/>
<stop offset="0.42" stop-color="#3767B0" stop-opacity="0.97"/>
<stop offset="0.5" stop-color="#305EAB"/>
<stop offset="0.76" stop-color="#6CA7D4" stop-opacity="0.2"/>
<stop offset="0.79" stop-color="#99C3E1" stop-opacity="0.27"/>
<stop offset="0.83" stop-color="#BEDAEC" stop-opacity="0.33"/>
<stop offset="0.87" stop-color="#D8EAF4" stop-opacity="0.37"/>
<stop offset="0.92" stop-color="#E8F4F8" stop-opacity="0.39"/>
<stop offset="1" stop-color="#EDF7FA" stop-opacity="0.4"/>
</linearGradient>
<linearGradient id="paint24_linear_970_170" x1="15.0965" y1="5.16504" x2="4.68473" y2="18.4039" gradientUnits="userSpaceOnUse">
<stop stop-color="#ACBBE0" stop-opacity="0.07"/>
<stop offset="0.04" stop-color="#ACBBE0" stop-opacity="0.26"/>
<stop offset="0.07" stop-color="#ACBBE0" stop-opacity="0.43"/>
<stop offset="0.1" stop-color="#ACBBE0" stop-opacity="0.57"/>
<stop offset="0.14" stop-color="#ACBBE0" stop-opacity="0.69"/>
<stop offset="0.18" stop-color="#ACBBE0" stop-opacity="0.79"/>
<stop offset="0.23" stop-color="#ACBBE0" stop-opacity="0.87"/>
<stop offset="0.29" stop-color="#ACBBE0" stop-opacity="0.92"/>
<stop offset="0.37" stop-color="#ACBBE0" stop-opacity="0.95"/>
<stop offset="0.61" stop-color="#ACBBE0" stop-opacity="0.96"/>
<stop offset="0.71" stop-color="#A9BDE1" stop-opacity="0.97"/>
<stop offset="0.8" stop-color="#A0C4E7" stop-opacity="0.99"/>
<stop offset="0.82" stop-color="#9DC7E9"/>
<stop offset="1" stop-color="#71ABCD" stop-opacity="0.8"/>
</linearGradient>
</defs>
</svg>
