<svg width="937" height="1012" viewBox="0 0 937 1012" fill="none" xmlns="http://www.w3.org/2000/svg" preserveAspectRatio="none">
<g filter="url(#filter0_d_970_162)">
<path d="M899 4C915.569 4 929 17.4315 929 34V992C929 996.418 925.418 1000 921 1000H16C11.5817 1000 8 996.418 8 992V61C8 56.5817 11.5817 53 16 53H362.562C370.688 53 378.007 48.0819 381.078 40.5576L393.969 8.97676C395.197 5.96707 398.125 4 401.375 4H899Z" fill="url(#paint0_linear_970_162)" shape-rendering="crispEdges"/>
<path d="M899 4C915.569 4 929 17.4315 929 34V992C929 996.418 925.418 1000 921 1000H16C11.5817 1000 8 996.418 8 992V61C8 56.5817 11.5817 53 16 53H362.562C370.688 53 378.007 48.0819 381.078 40.5576L393.969 8.97676C395.197 5.96707 398.125 4 401.375 4H899Z" fill="url(#paint1_linear_970_162)" shape-rendering="crispEdges"/>
</g>
<defs>
<filter id="filter0_d_970_162" x="0" y="0" width="937" height="1012" filterUnits="userSpaceOnUse" color-interpolation-filters="sRGB">
<feFlood flood-opacity="0" result="BackgroundImageFix"/>
<feColorMatrix in="SourceAlpha" type="matrix" values="0 0 0 0 0 0 0 0 0 0 0 0 0 0 0 0 0 0 127 0" result="hardAlpha"/>
<feOffset dy="4"/>
<feGaussianBlur stdDeviation="4"/>
<feComposite in2="hardAlpha" operator="out"/>
<feColorMatrix type="matrix" values="0 0 0 0 0 0 0 0 0 0 0 0 0 0 0 0 0 0 0.1 0"/>
<feBlend mode="normal" in2="BackgroundImageFix" result="effect1_dropShadow_970_162"/>
<feBlend mode="normal" in="SourceGraphic" in2="effect1_dropShadow_970_162" result="shape"/>
</filter>
<linearGradient id="paint0_linear_970_162" x1="1028" y1="1293" x2="397.098" y2="432.301" gradientUnits="userSpaceOnUse">
<stop stop-color="#F4E6D2"/>
<stop offset="1" stop-color="#F0EDE6" stop-opacity="0"/>
</linearGradient>
<linearGradient id="paint1_linear_970_162" x1="317.681" y1="19.3231" x2="1256.09" y2="1014.24" gradientUnits="userSpaceOnUse">
<stop stop-color="white"/>
<stop offset="1" stop-color="white" stop-opacity="0"/>
</linearGradient>
</defs>
</svg>
